<svg height="511.99975pt" viewBox="1 1 511.99975 511.99975" width="511.99975pt" xmlns="http://www.w3.org/2000/svg"><g fill-rule="evenodd"><path d="m270.332031 270.332031h20c11.046875 0 20 8.957031 20 20 0 11.046875-8.953125 20-20 20-11.042969 0-20-8.953125-20-20zm-47.050781 75.335938c7.808594 7.808593 7.808594 20.472656 0 28.285156-7.808594 7.808594-20.472656 7.808594-28.285156 0-7.808594-7.8125-7.808594-20.476563 0-28.285156l14.144531-14.140625zm150.671875-150.671875c7.8125 7.808594 7.8125 20.472656 0 28.285156-7.8125 7.808594-20.472656 7.808594-28.285156 0l-14.140625-14.144531 14.140625-14.140625c7.8125-7.808594 20.476562-7.808594 28.285156 0zm1.207031 180.164062c89.121094-89.121094 89.121094-233.613281 0-322.734375l-322.734375 322.734375c89.121094 89.117188 233.613281 89.117188 322.734375 0zm0 0" fill="#ff6977"/><path d="m331.527344 209.140625 14.140625 14.140625c7.8125 7.808594 20.476562 7.808594 28.285156 0 7.8125-7.8125 7.8125-20.472656 0-28.285156-7.808594-7.808594-20.472656-7.808594-28.28125 0zm0 0" fill="#858fa6"/><path d="m310.332031 290.332031c0-11.046875-8.953125-20-20-20h-20v20c0 11.046875 8.957031 20 20 20 11.046875 0 20-8.953125 20-20zm0 0" fill="#858fa6"/><path d="m223.28125 373.953125c7.8125-7.808594 7.8125-20.472656 0-28.285156l-14.140625-14.140625-14.144531 14.140625c-7.808594 7.8125-7.808594 20.476562 0 28.285156 7.8125 7.808594 20.476562 7.808594 28.285156 0zm0 0" fill="#858fa6"/><path d="m375.160156 375.160156c-89.121094 89.117188-233.613281 89.117188-322.734375 0l-42.425781 42.425782c112.550781 112.550781 295.035156 112.550781 407.585938 0 112.550781-112.550782 112.550781-295.035157 0-407.585938l-42.425782 42.425781c89.121094 89.121094 89.121094 233.613281 0 322.734375zm0 0" fill="#aae2c9"/></g><path d="m424.65625 2.929688c-3.902344-3.90625-10.234375-3.90625-14.140625 0l-42.425781 42.421874s0 .003907-.003906.003907v.003906l-20 19.996094c-3.90625 3.90625-3.90625 10.238281 0 14.144531 3.90625 3.902344 10.238281 3.902344 14.144531 0l12.761719-12.761719c78.097656 85.519531 75.804687 218.640625-6.90625 301.351563-30.566407 30.566406-69.035157 51.1875-111.253907 59.632812-5.414062 1.085938-8.925781 6.355469-7.84375 11.769532.953125 4.753906 5.128907 8.039062 9.796875 8.039062.648438 0 1.308594-.0625 1.972656-.195312 46.101563-9.222657 88.105469-31.738282 121.472657-65.105469 44.992187-44.988281 69.769531-104.808594 69.769531-168.4375 0-60.28125-22.253906-117.136719-62.851562-161.210938l28.3125-28.3125c101.484374 108.945313 99.164062 280.136719-6.945313 386.246094-106.101563 106.101563-277.300781 108.414063-386.246094 6.945313l28.308594-28.308594c32.117187 29.558594 71.414063 49.609375 114.253906 58.183594.664063.132812 1.324219.199218 1.972657.199218 4.667968 0 8.84375-3.289062 9.796874-8.042968 1.082032-5.414063-2.429687-10.683594-7.84375-11.765626-38.957031-7.796874-74.71875-25.964843-104.023437-52.734374l231.855469-231.855469c3.90625-3.902344 3.90625-10.234375 0-14.140625-3.902344-3.90625-10.234375-3.90625-14.140625 0l-239.085938 239.082031c-.003906.003906-.003906.003906-.007812.007813-.003907.003906-.003907.007812-.007813.007812l-42.417968 42.421875c-3.90625 3.902344-3.90625 10.234375 0 14.140625 56.324218 56.324219 131.210937 87.34375 210.863281 87.34375 79.65625 0 154.539062-31.019531 210.863281-87.34375s87.34375-131.207031 87.34375-210.863281c0-79.652344-31.019531-154.539063-87.34375-210.863281zm0 0"/><path d="m270.332031 260.332031c-5.519531 0-10 4.476563-10 10v20c0 16.542969 13.457031 30 30 30s30-13.457031 30-30-13.457031-30-30-30zm30 30c0 5.515625-4.484375 10-10 10s-10-4.484375-10-10v-10h10c5.515625 0 10 4.484375 10 10zm0 0"/><path d="m324.457031 216.210938 14.140625 14.140624c5.851563 5.847657 13.53125 8.773438 21.214844 8.773438s15.363281-2.925781 21.214844-8.773438c11.695312-11.695312 11.695312-30.730468 0-42.425781-11.699219-11.699219-30.730469-11.695312-42.429688 0l-14.140625 14.140625c-3.90625 3.90625-3.90625 10.238282 0 14.144532zm28.285157-14.144532c3.894531-3.898437 10.242187-3.898437 14.140624 0 1.886719 1.890625 2.929688 4.402344 2.929688 7.070313 0 2.671875-1.042969 5.183593-2.929688 7.074219-1.890624 1.886718-4.398437 2.925781-7.070312 2.925781s-5.183594-1.039063-7.070312-2.925781l-7.070313-7.074219zm0 0"/><path d="m230.351562 381.023438c11.699219-11.695313 11.699219-30.730469 0-42.425782l-14.140624-14.140625c-3.90625-3.90625-10.238282-3.90625-14.144532 0l-14.140625 14.140625c-11.699219 11.695313-11.699219 30.730469 0 42.425782 5.847657 5.851562 13.53125 8.773437 21.214844 8.773437 7.679687 0 15.363281-2.925781 21.210937-8.773437zm-14.140624-14.140626c-1.890626 1.886719-4.402344 2.925782-7.070313 2.925782-2.671875 0-5.183594-1.039063-7.074219-2.925782-1.886718-1.890624-2.925781-4.402343-2.925781-7.074218 0-2.667969 1.039063-5.179688 2.925781-7.070313l7.074219-7.070312 7.070313 7.070312c3.898437 3.898438 3.898437 10.246094 0 14.144531zm0 0"/><path d="m203.792969 442c0 5.523438 4.476562 10 10 10h.007812c5.519531 0 9.996094-4.476562 9.996094-10s-4.480469-10-10.003906-10c-5.523438 0-10 4.476562-10 10zm0 0"/><path d="m323.332031 114.25c2.71875 0 5.429688-1.105469 7.402344-3.273438l.007813-.003906c3.714843-4.085937 3.410156-10.410156-.675782-14.125-4.089844-3.714844-10.414062-3.410156-14.128906.675782-3.714844 4.085937-3.414062 10.410156.671875 14.125 1.914063 1.742187 4.324219 2.601562 6.722656 2.601562zm0 0"/></svg>